<?xml version="1.0" encoding="UTF-8" standalone="no"?>
<svg
   width="176px"
   height="52px"
   version="1.1"
   id="svg2"
   sodipodi:docname="logo-light-mode.svg"
   inkscape:version="1.4.2 (ebf0e940, 2025-05-08)"
   xmlns:inkscape="http://www.inkscape.org/namespaces/inkscape"
   xmlns:sodipodi="http://sodipodi.sourceforge.net/DTD/sodipodi-0.dtd"
   xmlns="http://www.w3.org/2000/svg"
   xmlns:svg="http://www.w3.org/2000/svg">
  <defs
     id="defs2" />
  <sodipodi:namedview
     id="namedview2"
     pagecolor="#ffffff"
     bordercolor="#000000"
     borderopacity="0.25"
     inkscape:showpageshadow="2"
     inkscape:pageopacity="0.0"
     inkscape:pagecheckerboard="0"
     inkscape:deskcolor="#d1d1d1"
     showgrid="false"
     inkscape:zoom="7.6761364"
     inkscape:cx="88"
     inkscape:cy="26.054774"
     inkscape:window-width="1920"
     inkscape:window-height="1027"
     inkscape:window-x="0"
     inkscape:window-y="25"
     inkscape:window-maximized="0"
     inkscape:current-layer="svg2" />
  <g
     fill="#202A3C"
     fill-rule="evenodd"
     id="g2">
    <path
       d="M 23.261719 5.183594 C 22.445312 6.03125 21.078125 8.042969 20.625 9.066406 C 20.054688 10.367188 19.761719 11.804688 19.761719 13.347656 C 19.777344 15.789062 20.316406 17.488281 21.753906 19.484375 L 22.671875 20.78125 L 21.441406 19.96875 C 20.332031 19.238281 20.089844 19.152344 19.238281 19.152344 C 18.164062 19.171875 17.351562 19.621094 16.988281 20.4375 C 16.710938 21.042969 15.546875 31.113281 15.667969 31.808594 C 15.738281 32.101562 15.878906 32.484375 16 32.65625 C 16.207031 32.933594 16.5 32.605469 18.773438 29.570312 C 20.175781 27.699219 21.390625 26.171875 21.476562 26.171875 C 21.546875 26.171875 21.734375 26.3125 21.890625 26.484375 C 22.167969 26.796875 22.046875 26.988281 19.671875 30.160156 C 18.285156 31.996094 17.160156 33.574219 17.160156 33.660156 C 17.160156 33.800781 17.800781 33.886719 18.597656 33.835938 C 19.050781 33.800781 27.59375 28.910156 28.324219 28.269531 C 29.121094 27.558594 29.34375 26.277344 28.84375 25.21875 C 28.667969 24.839844 28.167969 24.371094 27.457031 23.902344 C 26.832031 23.503906 26.363281 23.15625 26.398438 23.121094 C 26.414062 23.089844 26.917969 23.191406 27.472656 23.347656 C 28.738281 23.695312 31.113281 23.730469 32.414062 23.417969 C 35.03125 22.792969 37.285156 21.113281 39.070312 18.460938 C 41.132812 15.410156 41.132812 15.425781 35.132812 11.386719 C 33.347656 10.175781 30.609375 8.269531 29.050781 7.125 C 25.792969 4.75 25.375 4.507812 24.527344 4.507812 C 24.042969 4.507812 23.78125 4.644531 23.261719 5.183594 Z M 25.132812 8.613281 C 25.566406 8.910156 28.425781 11.128906 29.691406 12.152344 C 30.472656 12.792969 30.507812 13.171875 29.8125 14.039062 C 28.324219 15.929688 25.132812 15.53125 23.625 13.292969 C 22.636719 11.820312 22.671875 10.261719 23.746094 8.960938 C 24.351562 8.234375 24.527344 8.199219 25.132812 8.613281 Z M 25.132812 8.613281 "
       id="path1" />
    <path
       d="M 4.265625 26.121094 L -0.0351562 26.171875 L 0.0703125 27.523438 C 0.519531 32.570312 1.835938 36.488281 4.507812 40.558594 C 5.910156 42.691406 9.34375 46.140625 11.507812 47.5625 C 16.519531 50.855469 22.464844 52.382812 28.253906 51.828125 C 39.484375 50.769531 48.621094 42.882812 51.21875 32.015625 C 51.585938 30.507812 52 27.4375 52 26.328125 C 52 26.015625 51.722656 26 43.386719 26 L 34.753906 26 L 34.734375 28.566406 C 34.71875 30.851562 34.683594 31.253906 34.25 32.484375 C 32.777344 36.816406 29.378906 40.074219 25.132812 41.203125 C 23.589844 41.617188 20.089844 41.617188 18.546875 41.203125 C 16.035156 40.523438 13.363281 38.792969 11.734375 36.746094 C 9.6875 34.234375 8.71875 31.199219 8.875 27.890625 C 8.945312 26.539062 8.910156 26.015625 8.769531 26.035156 C 8.667969 26.070312 6.636719 26.105469 4.265625 26.121094 Z M 4.265625 26.121094 "
       id="path2" />
  </g>
  <text
     xml:space="preserve"
     style="font-style:normal;font-variant:normal;font-weight:bold;font-stretch:normal;font-size:24px;font-family:Copperplate;-inkscape-font-specification:'Copperplate, Bold';font-variant-ligatures:normal;font-variant-caps:normal;font-variant-numeric:normal;font-variant-east-asian:normal;text-align:start;writing-mode:lr-tb;direction:ltr;text-anchor:start;fill:#202a3c;fill-opacity:1;stroke:#202a3c;stroke-opacity:1"
     x="55.236122"
     y="23.709843"
     id="text2"><tspan
       sodipodi:role="line"
       x="55.236122"
       y="23.709843"
       id="tspan3">Kolibee </tspan></text>
  <text
     xml:space="preserve"
     style="font-style:normal;font-variant:normal;font-weight:bold;font-stretch:normal;font-size:24px;font-family:Copperplate;-inkscape-font-specification:'Copperplate, Bold';font-variant-ligatures:normal;font-variant-caps:normal;font-variant-numeric:normal;font-variant-east-asian:normal;text-align:start;writing-mode:lr-tb;direction:ltr;text-anchor:start;fill:#202a3c;fill-opacity:1;stroke:#202a3c;stroke-opacity:1"
     x="56.538864"
     y="42.46928"
     id="text5"><tspan
       sodipodi:role="line"
       x="56.538864"
       y="42.46928"
       id="tspan5">Tools</tspan></text>
</svg>
